<?xml version="1.0" encoding="utf-8" standalone="no"?>
<!DOCTYPE svg PUBLIC "-//W3C//DTD SVG 1.1//EN"
  "http://www.w3.org/Graphics/SVG/1.1/DTD/svg11.dtd">
<!-- Created with matplotlib (http://matplotlib.org/) -->
<svg height="471pt" version="1.1" viewBox="0 0 921 471" width="921pt" xmlns="http://www.w3.org/2000/svg" xmlns:xlink="http://www.w3.org/1999/xlink">
 <defs>
  <style type="text/css">
*{stroke-linecap:butt;stroke-linejoin:round;}
  </style>
 </defs>
 <g id="figure_1">
  <g id="patch_1">
   <path d="M 0 471.84 
L 921.6 471.84 
L 921.6 0 
L 0 0 
z
" style="fill:#ffffff;"/>
  </g>
  <g id="axes_1">
   <g id="patch_2">
    <path d="M 48.3328 430.50359 
L 905.6256 430.50359 
L 905.6256 26.132677 
L 48.3328 26.132677 
z
" style="fill:none;"/>
   </g>
   <g id="matplotlib.axis_1">
    <g id="xtick_1">
     <g id="line2d_1">
      <defs>
       <path d="M 0 0 
L 0 3.5 
" id="m2ff9853fd5" style="stroke:#000000;stroke-width:0.8;"/>
      </defs>
      <g>
       <use style="stroke:#000000;stroke-width:0.8;" x="62.38678" xlink:href="#m2ff9853fd5" y="430.50359"/>
      </g>
     </g>
     <g id="text_1">
      <!-- 58 -->
      <defs>
       <path d="M 10.796875 72.90625 
L 49.515625 72.90625 
L 49.515625 64.59375 
L 19.828125 64.59375 
L 19.828125 46.734375 
Q 21.96875 47.46875 24.109375 47.828125 
Q 26.265625 48.1875 28.421875 48.1875 
Q 40.625 48.1875 47.75 41.5 
Q 54.890625 34.8125 54.890625 23.390625 
Q 54.890625 11.625 47.5625 5.09375 
Q 40.234375 -1.421875 26.90625 -1.421875 
Q 22.3125 -1.421875 17.546875 -0.640625 
Q 12.796875 0.140625 7.71875 1.703125 
L 7.71875 11.625 
Q 12.109375 9.234375 16.796875 8.0625 
Q 21.484375 6.890625 26.703125 6.890625 
Q 35.15625 6.890625 40.078125 11.328125 
Q 45.015625 15.765625 45.015625 23.390625 
Q 45.015625 31 40.078125 35.4375 
Q 35.15625 39.890625 26.703125 39.890625 
Q 22.75 39.890625 18.8125 39.015625 
Q 14.890625 38.140625 10.796875 36.28125 
z
" id="DejaVuSans-35"/>
       <path d="M 31.78125 34.625 
Q 24.75 34.625 20.71875 30.859375 
Q 16.703125 27.09375 16.703125 20.515625 
Q 16.703125 13.921875 20.71875 10.15625 
Q 24.75 6.390625 31.78125 6.390625 
Q 38.8125 6.390625 42.859375 10.171875 
Q 46.921875 13.96875 46.921875 20.515625 
Q 46.921875 27.09375 42.890625 30.859375 
Q 38.875 34.625 31.78125 34.625 
z
M 21.921875 38.8125 
Q 15.578125 40.375 12.03125 44.71875 
Q 8.5 49.078125 8.5 55.328125 
Q 8.5 64.0625 14.71875 69.140625 
Q 20.953125 74.21875 31.78125 74.21875 
Q 42.671875 74.21875 48.875 69.140625 
Q 55.078125 64.0625 55.078125 55.328125 
Q 55.078125 49.078125 51.53125 44.71875 
Q 48 40.375 41.703125 38.8125 
Q 48.828125 37.15625 52.796875 32.3125 
Q 56.78125 27.484375 56.78125 20.515625 
Q 56.78125 9.90625 50.3125 4.234375 
Q 43.84375 -1.421875 31.78125 -1.421875 
Q 19.734375 -1.421875 13.25 4.234375 
Q 6.78125 9.90625 6.78125 20.515625 
Q 6.78125 27.484375 10.78125 32.3125 
Q 14.796875 37.15625 21.921875 38.8125 
z
M 18.3125 54.390625 
Q 18.3125 48.734375 21.84375 45.5625 
Q 25.390625 42.390625 31.78125 42.390625 
Q 38.140625 42.390625 41.71875 45.5625 
Q 45.3125 48.734375 45.3125 54.390625 
Q 45.3125 60.0625 41.71875 63.234375 
Q 38.140625 66.40625 31.78125 66.40625 
Q 25.390625 66.40625 21.84375 63.234375 
Q 18.3125 60.0625 18.3125 54.390625 
z
" id="DejaVuSans-38"/>
      </defs>
      <g transform="translate(56.02428 445.102027)scale(0.1 -0.1)">
       <use xlink:href="#DejaVuSans-35"/>
       <use x="63.623047" xlink:href="#DejaVuSans-38"/>
      </g>
     </g>
    </g>
    <g id="xtick_2">
     <g id="line2d_2">
      <g>
       <use style="stroke:#000000;stroke-width:0.8;" x="104.548721" xlink:href="#m2ff9853fd5" y="430.50359"/>
      </g>
     </g>
     <g id="text_2">
      <!-- 61 -->
      <defs>
       <path d="M 33.015625 40.375 
Q 26.375 40.375 22.484375 35.828125 
Q 18.609375 31.296875 18.609375 23.390625 
Q 18.609375 15.53125 22.484375 10.953125 
Q 26.375 6.390625 33.015625 6.390625 
Q 39.65625 6.390625 43.53125 10.953125 
Q 47.40625 15.53125 47.40625 23.390625 
Q 47.40625 31.296875 43.53125 35.828125 
Q 39.65625 40.375 33.015625 40.375 
z
M 52.59375 71.296875 
L 52.59375 62.3125 
Q 48.875 64.0625 45.09375 64.984375 
Q 41.3125 65.921875 37.59375 65.921875 
Q 27.828125 65.921875 22.671875 59.328125 
Q 17.53125 52.734375 16.796875 39.40625 
Q 19.671875 43.65625 24.015625 45.921875 
Q 28.375 48.1875 33.59375 48.1875 
Q 44.578125 48.1875 50.953125 41.515625 
Q 57.328125 34.859375 57.328125 23.390625 
Q 57.328125 12.15625 50.6875 5.359375 
Q 44.046875 -1.421875 33.015625 -1.421875 
Q 20.359375 -1.421875 13.671875 8.265625 
Q 6.984375 17.96875 6.984375 36.375 
Q 6.984375 53.65625 15.1875 63.9375 
Q 23.390625 74.21875 37.203125 74.21875 
Q 40.921875 74.21875 44.703125 73.484375 
Q 48.484375 72.75 52.59375 71.296875 
z
" id="DejaVuSans-36"/>
       <path d="M 12.40625 8.296875 
L 28.515625 8.296875 
L 28.515625 63.921875 
L 10.984375 60.40625 
L 10.984375 69.390625 
L 28.421875 72.90625 
L 38.28125 72.90625 
L 38.28125 8.296875 
L 54.390625 8.296875 
L 54.390625 0 
L 12.40625 0 
z
" id="DejaVuSans-31"/>
      </defs>
      <g transform="translate(98.186221 445.102027)scale(0.1 -0.1)">
       <use xlink:href="#DejaVuSans-36"/>
       <use x="63.623047" xlink:href="#DejaVuSans-31"/>
      </g>
     </g>
    </g>
    <g id="xtick_3">
     <g id="line2d_3">
      <g>
       <use style="stroke:#000000;stroke-width:0.8;" x="146.710662" xlink:href="#m2ff9853fd5" y="430.50359"/>
      </g>
     </g>
     <g id="text_3">
      <!-- 64 -->
      <defs>
       <path d="M 37.796875 64.3125 
L 12.890625 25.390625 
L 37.796875 25.390625 
z
M 35.203125 72.90625 
L 47.609375 72.90625 
L 47.609375 25.390625 
L 58.015625 25.390625 
L 58.015625 17.1875 
L 47.609375 17.1875 
L 47.609375 0 
L 37.796875 0 
L 37.796875 17.1875 
L 4.890625 17.1875 
L 4.890625 26.703125 
z
" id="DejaVuSans-34"/>
      </defs>
      <g transform="translate(140.348162 445.102027)scale(0.1 -0.1)">
       <use xlink:href="#DejaVuSans-36"/>
       <use x="63.623047" xlink:href="#DejaVuSans-34"/>
      </g>
     </g>
    </g>
    <g id="xtick_4">
     <g id="line2d_4">
      <g>
       <use style="stroke:#000000;stroke-width:0.8;" x="188.872603" xlink:href="#m2ff9853fd5" y="430.50359"/>
      </g>
     </g>
     <g id="text_4">
      <!-- 67 -->
      <defs>
       <path d="M 8.203125 72.90625 
L 55.078125 72.90625 
L 55.078125 68.703125 
L 28.609375 0 
L 18.3125 0 
L 43.21875 64.59375 
L 8.203125 64.59375 
z
" id="DejaVuSans-37"/>
      </defs>
      <g transform="translate(182.510103 445.102027)scale(0.1 -0.1)">
       <use xlink:href="#DejaVuSans-36"/>
       <use x="63.623047" xlink:href="#DejaVuSans-37"/>
      </g>
     </g>
    </g>
    <g id="xtick_5">
     <g id="line2d_5">
      <g>
       <use style="stroke:#000000;stroke-width:0.8;" x="231.034544" xlink:href="#m2ff9853fd5" y="430.50359"/>
      </g>
     </g>
     <g id="text_5">
      <!-- 70 -->
      <defs>
       <path d="M 31.78125 66.40625 
Q 24.171875 66.40625 20.328125 58.90625 
Q 16.5 51.421875 16.5 36.375 
Q 16.5 21.390625 20.328125 13.890625 
Q 24.171875 6.390625 31.78125 6.390625 
Q 39.453125 6.390625 43.28125 13.890625 
Q 47.125 21.390625 47.125 36.375 
Q 47.125 51.421875 43.28125 58.90625 
Q 39.453125 66.40625 31.78125 66.40625 
z
M 31.78125 74.21875 
Q 44.046875 74.21875 50.515625 64.515625 
Q 56.984375 54.828125 56.984375 36.375 
Q 56.984375 17.96875 50.515625 8.265625 
Q 44.046875 -1.421875 31.78125 -1.421875 
Q 19.53125 -1.421875 13.0625 8.265625 
Q 6.59375 17.96875 6.59375 36.375 
Q 6.59375 54.828125 13.0625 64.515625 
Q 19.53125 74.21875 31.78125 74.21875 
z
" id="DejaVuSans-30"/>
      </defs>
      <g transform="translate(224.672044 445.102027)scale(0.1 -0.1)">
       <use xlink:href="#DejaVuSans-37"/>
       <use x="63.623047" xlink:href="#DejaVuSans-30"/>
      </g>
     </g>
    </g>
    <g id="xtick_6">
     <g id="line2d_6">
      <g>
       <use style="stroke:#000000;stroke-width:0.8;" x="273.196485" xlink:href="#m2ff9853fd5" y="430.50359"/>
      </g>
     </g>
     <g id="text_6">
      <!-- 73 -->
      <defs>
       <path d="M 40.578125 39.3125 
Q 47.65625 37.796875 51.625 33 
Q 55.609375 28.21875 55.609375 21.1875 
Q 55.609375 10.40625 48.1875 4.484375 
Q 40.765625 -1.421875 27.09375 -1.421875 
Q 22.515625 -1.421875 17.65625 -0.515625 
Q 12.796875 0.390625 7.625 2.203125 
L 7.625 11.71875 
Q 11.71875 9.328125 16.59375 8.109375 
Q 21.484375 6.890625 26.8125 6.890625 
Q 36.078125 6.890625 40.9375 10.546875 
Q 45.796875 14.203125 45.796875 21.1875 
Q 45.796875 27.640625 41.28125 31.265625 
Q 36.765625 34.90625 28.71875 34.90625 
L 20.21875 34.90625 
L 20.21875 43.015625 
L 29.109375 43.015625 
Q 36.375 43.015625 40.234375 45.921875 
Q 44.09375 48.828125 44.09375 54.296875 
Q 44.09375 59.90625 40.109375 62.90625 
Q 36.140625 65.921875 28.71875 65.921875 
Q 24.65625 65.921875 20.015625 65.03125 
Q 15.375 64.15625 9.8125 62.3125 
L 9.8125 71.09375 
Q 15.4375 72.65625 20.34375 73.4375 
Q 25.25 74.21875 29.59375 74.21875 
Q 40.828125 74.21875 47.359375 69.109375 
Q 53.90625 64.015625 53.90625 55.328125 
Q 53.90625 49.265625 50.4375 45.09375 
Q 46.96875 40.921875 40.578125 39.3125 
z
" id="DejaVuSans-33"/>
      </defs>
      <g transform="translate(266.833985 445.102027)scale(0.1 -0.1)">
       <use xlink:href="#DejaVuSans-37"/>
       <use x="63.623047" xlink:href="#DejaVuSans-33"/>
      </g>
     </g>
    </g>
    <g id="xtick_7">
     <g id="line2d_7">
      <g>
       <use style="stroke:#000000;stroke-width:0.8;" x="315.358426" xlink:href="#m2ff9853fd5" y="430.50359"/>
      </g>
     </g>
     <g id="text_7">
      <!-- 76 -->
      <g transform="translate(308.995926 445.102027)scale(0.1 -0.1)">
       <use xlink:href="#DejaVuSans-37"/>
       <use x="63.623047" xlink:href="#DejaVuSans-36"/>
      </g>
     </g>
    </g>
    <g id="xtick_8">
     <g id="line2d_8">
      <g>
       <use style="stroke:#000000;stroke-width:0.8;" x="357.520367" xlink:href="#m2ff9853fd5" y="430.50359"/>
      </g>
     </g>
     <g id="text_8">
      <!-- 79 -->
      <defs>
       <path d="M 10.984375 1.515625 
L 10.984375 10.5 
Q 14.703125 8.734375 18.5 7.8125 
Q 22.3125 6.890625 25.984375 6.890625 
Q 35.75 6.890625 40.890625 13.453125 
Q 46.046875 20.015625 46.78125 33.40625 
Q 43.953125 29.203125 39.59375 26.953125 
Q 35.25 24.703125 29.984375 24.703125 
Q 19.046875 24.703125 12.671875 31.3125 
Q 6.296875 37.9375 6.296875 49.421875 
Q 6.296875 60.640625 12.9375 67.421875 
Q 19.578125 74.21875 30.609375 74.21875 
Q 43.265625 74.21875 49.921875 64.515625 
Q 56.59375 54.828125 56.59375 36.375 
Q 56.59375 19.140625 48.40625 8.859375 
Q 40.234375 -1.421875 26.421875 -1.421875 
Q 22.703125 -1.421875 18.890625 -0.6875 
Q 15.09375 0.046875 10.984375 1.515625 
z
M 30.609375 32.421875 
Q 37.25 32.421875 41.125 36.953125 
Q 45.015625 41.5 45.015625 49.421875 
Q 45.015625 57.28125 41.125 61.84375 
Q 37.25 66.40625 30.609375 66.40625 
Q 23.96875 66.40625 20.09375 61.84375 
Q 16.21875 57.28125 16.21875 49.421875 
Q 16.21875 41.5 20.09375 36.953125 
Q 23.96875 32.421875 30.609375 32.421875 
z
" id="DejaVuSans-39"/>
      </defs>
      <g transform="translate(351.157867 445.102027)scale(0.1 -0.1)">
       <use xlink:href="#DejaVuSans-37"/>
       <use x="63.623047" xlink:href="#DejaVuSans-39"/>
      </g>
     </g>
    </g>
    <g id="xtick_9">
     <g id="line2d_9">
      <g>
       <use style="stroke:#000000;stroke-width:0.8;" x="399.682308" xlink:href="#m2ff9853fd5" y="430.50359"/>
      </g>
     </g>
     <g id="text_9">
      <!-- 82 -->
      <defs>
       <path d="M 19.1875 8.296875 
L 53.609375 8.296875 
L 53.609375 0 
L 7.328125 0 
L 7.328125 8.296875 
Q 12.9375 14.109375 22.625 23.890625 
Q 32.328125 33.6875 34.8125 36.53125 
Q 39.546875 41.84375 41.421875 45.53125 
Q 43.3125 49.21875 43.3125 52.78125 
Q 43.3125 58.59375 39.234375 62.25 
Q 35.15625 65.921875 28.609375 65.921875 
Q 23.96875 65.921875 18.8125 64.3125 
Q 13.671875 62.703125 7.8125 59.421875 
L 7.8125 69.390625 
Q 13.765625 71.78125 18.9375 73 
Q 24.125 74.21875 28.421875 74.21875 
Q 39.75 74.21875 46.484375 68.546875 
Q 53.21875 62.890625 53.21875 53.421875 
Q 53.21875 48.921875 51.53125 44.890625 
Q 49.859375 40.875 45.40625 35.40625 
Q 44.1875 33.984375 37.640625 27.21875 
Q 31.109375 20.453125 19.1875 8.296875 
z
" id="DejaVuSans-32"/>
      </defs>
      <g transform="translate(393.319808 445.102027)scale(0.1 -0.1)">
       <use xlink:href="#DejaVuSans-38"/>
       <use x="63.623047" xlink:href="#DejaVuSans-32"/>
      </g>
     </g>
    </g>
    <g id="xtick_10">
     <g id="line2d_10">
      <g>
       <use style="stroke:#000000;stroke-width:0.8;" x="441.844249" xlink:href="#m2ff9853fd5" y="430.50359"/>
      </g>
     </g>
     <g id="text_10">
      <!-- 85 -->
      <g transform="translate(435.481749 445.102027)scale(0.1 -0.1)">
       <use xlink:href="#DejaVuSans-38"/>
       <use x="63.623047" xlink:href="#DejaVuSans-35"/>
      </g>
     </g>
    </g>
    <g id="xtick_11">
     <g id="line2d_11">
      <g>
       <use style="stroke:#000000;stroke-width:0.8;" x="484.00619" xlink:href="#m2ff9853fd5" y="430.50359"/>
      </g>
     </g>
     <g id="text_11">
      <!-- 88 -->
      <g transform="translate(477.64369 445.102027)scale(0.1 -0.1)">
       <use xlink:href="#DejaVuSans-38"/>
       <use x="63.623047" xlink:href="#DejaVuSans-38"/>
      </g>
     </g>
    </g>
    <g id="xtick_12">
     <g id="line2d_12">
      <g>
       <use style="stroke:#000000;stroke-width:0.8;" x="526.168131" xlink:href="#m2ff9853fd5" y="430.50359"/>
      </g>
     </g>
     <g id="text_12">
      <!-- 91 -->
      <g transform="translate(519.805631 445.102027)scale(0.1 -0.1)">
       <use xlink:href="#DejaVuSans-39"/>
       <use x="63.623047" xlink:href="#DejaVuSans-31"/>
      </g>
     </g>
    </g>
    <g id="xtick_13">
     <g id="line2d_13">
      <g>
       <use style="stroke:#000000;stroke-width:0.8;" x="568.330072" xlink:href="#m2ff9853fd5" y="430.50359"/>
      </g>
     </g>
     <g id="text_13">
      <!-- 94 -->
      <g transform="translate(561.967572 445.102027)scale(0.1 -0.1)">
       <use xlink:href="#DejaVuSans-39"/>
       <use x="63.623047" xlink:href="#DejaVuSans-34"/>
      </g>
     </g>
    </g>
    <g id="xtick_14">
     <g id="line2d_14">
      <g>
       <use style="stroke:#000000;stroke-width:0.8;" x="610.492013" xlink:href="#m2ff9853fd5" y="430.50359"/>
      </g>
     </g>
     <g id="text_14">
      <!-- 97 -->
      <g transform="translate(604.129513 445.102027)scale(0.1 -0.1)">
       <use xlink:href="#DejaVuSans-39"/>
       <use x="63.623047" xlink:href="#DejaVuSans-37"/>
      </g>
     </g>
    </g>
    <g id="xtick_15">
     <g id="line2d_15">
      <g>
       <use style="stroke:#000000;stroke-width:0.8;" x="652.653954" xlink:href="#m2ff9853fd5" y="430.50359"/>
      </g>
     </g>
     <g id="text_15">
      <!-- 00 -->
      <g transform="translate(646.291454 445.102027)scale(0.1 -0.1)">
       <use xlink:href="#DejaVuSans-30"/>
       <use x="63.623047" xlink:href="#DejaVuSans-30"/>
      </g>
     </g>
    </g>
    <g id="xtick_16">
     <g id="line2d_16">
      <g>
       <use style="stroke:#000000;stroke-width:0.8;" x="694.815895" xlink:href="#m2ff9853fd5" y="430.50359"/>
      </g>
     </g>
     <g id="text_16">
      <!-- 03 -->
      <g transform="translate(688.453395 445.102027)scale(0.1 -0.1)">
       <use xlink:href="#DejaVuSans-30"/>
       <use x="63.623047" xlink:href="#DejaVuSans-33"/>
      </g>
     </g>
    </g>
    <g id="xtick_17">
     <g id="line2d_17">
      <g>
       <use style="stroke:#000000;stroke-width:0.8;" x="736.977836" xlink:href="#m2ff9853fd5" y="430.50359"/>
      </g>
     </g>
     <g id="text_17">
      <!-- 06 -->
      <g transform="translate(730.615336 445.102027)scale(0.1 -0.1)">
       <use xlink:href="#DejaVuSans-30"/>
       <use x="63.623047" xlink:href="#DejaVuSans-36"/>
      </g>
     </g>
    </g>
    <g id="xtick_18">
     <g id="line2d_18">
      <g>
       <use style="stroke:#000000;stroke-width:0.8;" x="779.139777" xlink:href="#m2ff9853fd5" y="430.50359"/>
      </g>
     </g>
     <g id="text_18">
      <!-- 09 -->
      <g transform="translate(772.777277 445.102027)scale(0.1 -0.1)">
       <use xlink:href="#DejaVuSans-30"/>
       <use x="63.623047" xlink:href="#DejaVuSans-39"/>
      </g>
     </g>
    </g>
    <g id="xtick_19">
     <g id="line2d_19">
      <g>
       <use style="stroke:#000000;stroke-width:0.8;" x="821.301718" xlink:href="#m2ff9853fd5" y="430.50359"/>
      </g>
     </g>
     <g id="text_19">
      <!-- 12 -->
      <g transform="translate(814.939218 445.102027)scale(0.1 -0.1)">
       <use xlink:href="#DejaVuSans-31"/>
       <use x="63.623047" xlink:href="#DejaVuSans-32"/>
      </g>
     </g>
    </g>
    <g id="xtick_20">
     <g id="line2d_20">
      <g>
       <use style="stroke:#000000;stroke-width:0.8;" x="863.463659" xlink:href="#m2ff9853fd5" y="430.50359"/>
      </g>
     </g>
     <g id="text_20">
      <!-- 15 -->
      <g transform="translate(857.101159 445.102027)scale(0.1 -0.1)">
       <use xlink:href="#DejaVuSans-31"/>
       <use x="63.623047" xlink:href="#DejaVuSans-35"/>
      </g>
     </g>
    </g>
    <g id="text_21">
     <!-- Calendar Year -->
     <defs>
      <path d="M 67 4 
Q 61.8125 1.3125 56.203125 -0.046875 
Q 50.59375 -1.421875 44.484375 -1.421875 
Q 26.265625 -1.421875 15.625 8.765625 
Q 4.984375 18.953125 4.984375 36.375 
Q 4.984375 53.859375 15.625 64.03125 
Q 26.265625 74.21875 44.484375 74.21875 
Q 50.59375 74.21875 56.203125 72.84375 
Q 61.8125 71.484375 67 68.796875 
L 67 53.71875 
Q 61.765625 57.28125 56.6875 58.9375 
Q 51.609375 60.59375 46 60.59375 
Q 35.9375 60.59375 30.171875 54.140625 
Q 24.421875 47.703125 24.421875 36.375 
Q 24.421875 25.09375 30.171875 18.640625 
Q 35.9375 12.203125 46 12.203125 
Q 51.609375 12.203125 56.6875 13.859375 
Q 61.765625 15.53125 67 19.09375 
z
" id="DejaVuSans-Bold-43"/>
      <path d="M 32.90625 24.609375 
Q 27.4375 24.609375 24.671875 22.75 
Q 21.921875 20.90625 21.921875 17.28125 
Q 21.921875 13.96875 24.140625 12.078125 
Q 26.375 10.203125 30.328125 10.203125 
Q 35.25 10.203125 38.625 13.734375 
Q 42 17.28125 42 22.609375 
L 42 24.609375 
z
M 59.625 31.203125 
L 59.625 0 
L 42 0 
L 42 8.109375 
Q 38.484375 3.125 34.078125 0.84375 
Q 29.6875 -1.421875 23.390625 -1.421875 
Q 14.890625 -1.421875 9.59375 3.53125 
Q 4.296875 8.5 4.296875 16.40625 
Q 4.296875 26.03125 10.90625 30.515625 
Q 17.53125 35.015625 31.6875 35.015625 
L 42 35.015625 
L 42 36.375 
Q 42 40.53125 38.71875 42.453125 
Q 35.453125 44.390625 28.515625 44.390625 
Q 22.90625 44.390625 18.0625 43.265625 
Q 13.234375 42.140625 9.078125 39.890625 
L 9.078125 53.21875 
Q 14.703125 54.59375 20.359375 55.296875 
Q 26.03125 56 31.6875 56 
Q 46.484375 56 53.046875 50.171875 
Q 59.625 44.34375 59.625 31.203125 
z
" id="DejaVuSans-Bold-61"/>
      <path d="M 8.40625 75.984375 
L 25.875 75.984375 
L 25.875 0 
L 8.40625 0 
z
" id="DejaVuSans-Bold-6c"/>
      <path d="M 62.984375 27.484375 
L 62.984375 22.515625 
L 22.125 22.515625 
Q 22.75 16.359375 26.5625 13.28125 
Q 30.375 10.203125 37.203125 10.203125 
Q 42.71875 10.203125 48.5 11.84375 
Q 54.296875 13.484375 60.40625 16.796875 
L 60.40625 3.328125 
Q 54.203125 0.984375 48 -0.21875 
Q 41.796875 -1.421875 35.59375 -1.421875 
Q 20.75 -1.421875 12.515625 6.125 
Q 4.296875 13.671875 4.296875 27.296875 
Q 4.296875 40.671875 12.375 48.328125 
Q 20.453125 56 34.625 56 
Q 47.515625 56 55.25 48.234375 
Q 62.984375 40.484375 62.984375 27.484375 
z
M 45.015625 33.296875 
Q 45.015625 38.28125 42.109375 41.328125 
Q 39.203125 44.390625 34.515625 44.390625 
Q 29.4375 44.390625 26.265625 41.53125 
Q 23.09375 38.671875 22.3125 33.296875 
z
" id="DejaVuSans-Bold-65"/>
      <path d="M 63.375 33.296875 
L 63.375 0 
L 45.796875 0 
L 45.796875 5.421875 
L 45.796875 25.484375 
Q 45.796875 32.5625 45.484375 35.25 
Q 45.171875 37.9375 44.390625 39.203125 
Q 43.359375 40.921875 41.59375 41.875 
Q 39.84375 42.828125 37.59375 42.828125 
Q 32.125 42.828125 29 38.59375 
Q 25.875 34.375 25.875 26.90625 
L 25.875 0 
L 8.40625 0 
L 8.40625 54.6875 
L 25.875 54.6875 
L 25.875 46.6875 
Q 29.828125 51.46875 34.265625 53.734375 
Q 38.71875 56 44.09375 56 
Q 53.5625 56 58.46875 50.1875 
Q 63.375 44.390625 63.375 33.296875 
z
" id="DejaVuSans-Bold-6e"/>
      <path d="M 45.609375 46.6875 
L 45.609375 75.984375 
L 63.1875 75.984375 
L 63.1875 0 
L 45.609375 0 
L 45.609375 7.90625 
Q 42 3.078125 37.640625 0.828125 
Q 33.296875 -1.421875 27.59375 -1.421875 
Q 17.484375 -1.421875 10.984375 6.609375 
Q 4.5 14.65625 4.5 27.296875 
Q 4.5 39.9375 10.984375 47.96875 
Q 17.484375 56 27.59375 56 
Q 33.25 56 37.625 53.734375 
Q 42 51.46875 45.609375 46.6875 
z
M 34.078125 11.28125 
Q 39.703125 11.28125 42.65625 15.375 
Q 45.609375 19.484375 45.609375 27.296875 
Q 45.609375 35.109375 42.65625 39.203125 
Q 39.703125 43.3125 34.078125 43.3125 
Q 28.515625 43.3125 25.5625 39.203125 
Q 22.609375 35.109375 22.609375 27.296875 
Q 22.609375 19.484375 25.5625 15.375 
Q 28.515625 11.28125 34.078125 11.28125 
z
" id="DejaVuSans-Bold-64"/>
      <path d="M 49.03125 39.796875 
Q 46.734375 40.875 44.453125 41.375 
Q 42.1875 41.890625 39.890625 41.890625 
Q 33.15625 41.890625 29.515625 37.5625 
Q 25.875 33.25 25.875 25.203125 
L 25.875 0 
L 8.40625 0 
L 8.40625 54.6875 
L 25.875 54.6875 
L 25.875 45.703125 
Q 29.25 51.078125 33.609375 53.53125 
Q 37.984375 56 44.09375 56 
Q 44.96875 56 45.984375 55.921875 
Q 47.015625 55.859375 48.96875 55.609375 
z
" id="DejaVuSans-Bold-72"/>
      <path id="DejaVuSans-Bold-20"/>
      <path d="M -0.984375 72.90625 
L 19.578125 72.90625 
L 36.1875 46.921875 
L 52.78125 72.90625 
L 73.390625 72.90625 
L 45.609375 30.71875 
L 45.609375 0 
L 26.8125 0 
L 26.8125 30.71875 
z
" id="DejaVuSans-Bold-59"/>
     </defs>
     <g transform="translate(437.2667 458.780152)scale(0.1 -0.1)">
      <use xlink:href="#DejaVuSans-Bold-43"/>
      <use x="73.388672" xlink:href="#DejaVuSans-Bold-61"/>
      <use x="140.869141" xlink:href="#DejaVuSans-Bold-6c"/>
      <use x="175.146484" xlink:href="#DejaVuSans-Bold-65"/>
      <use x="242.96875" xlink:href="#DejaVuSans-Bold-6e"/>
      <use x="314.160156" xlink:href="#DejaVuSans-Bold-64"/>
      <use x="385.742188" xlink:href="#DejaVuSans-Bold-61"/>
      <use x="453.222656" xlink:href="#DejaVuSans-Bold-72"/>
      <use x="502.539062" xlink:href="#DejaVuSans-Bold-20"/>
      <use x="537.353516" xlink:href="#DejaVuSans-Bold-59"/>
      <use x="609.625" xlink:href="#DejaVuSans-Bold-65"/>
      <use x="677.447266" xlink:href="#DejaVuSans-Bold-61"/>
      <use x="744.927734" xlink:href="#DejaVuSans-Bold-72"/>
     </g>
    </g>
   </g>
   <g id="matplotlib.axis_2">
    <g id="ytick_1">
     <g id="line2d_21">
      <path clip-path="url(#p0c4ca8b8bc)" d="M 48.3328 430.50359 
L 905.6256 430.50359 
" style="fill:none;stroke:#a5a5a5;stroke-linecap:square;stroke-width:0.8;"/>
     </g>
     <g id="line2d_22">
      <defs>
       <path d="M 0 0 
L -3.5 0 
" id="mb2bd2c66b7" style="stroke:#000000;stroke-width:0.8;"/>
      </defs>
      <g>
       <use style="stroke:#000000;stroke-width:0.8;" x="48.3328" xlink:href="#mb2bd2c66b7" y="430.50359"/>
      </g>
     </g>
     <g id="text_22">
      <!-- 0 -->
      <g transform="translate(34.9703 434.302808)scale(0.1 -0.1)">
       <use xlink:href="#DejaVuSans-30"/>
      </g>
     </g>
    </g>
    <g id="ytick_2">
     <g id="line2d_23">
      <path clip-path="url(#p0c4ca8b8bc)" d="M 48.3328 343.17589 
L 905.6256 343.17589 
" style="fill:none;stroke:#a5a5a5;stroke-linecap:square;stroke-width:0.8;"/>
     </g>
     <g id="line2d_24">
      <g>
       <use style="stroke:#000000;stroke-width:0.8;" x="48.3328" xlink:href="#mb2bd2c66b7" y="343.17589"/>
      </g>
     </g>
     <g id="text_23">
      <!-- 1 -->
      <g transform="translate(34.9703 346.975109)scale(0.1 -0.1)">
       <use xlink:href="#DejaVuSans-31"/>
      </g>
     </g>
    </g>
    <g id="ytick_3">
     <g id="line2d_25">
      <path clip-path="url(#p0c4ca8b8bc)" d="M 48.3328 255.848191 
L 905.6256 255.848191 
" style="fill:none;stroke:#a5a5a5;stroke-linecap:square;stroke-width:0.8;"/>
     </g>
     <g id="line2d_26">
      <g>
       <use style="stroke:#000000;stroke-width:0.8;" x="48.3328" xlink:href="#mb2bd2c66b7" y="255.848191"/>
      </g>
     </g>
     <g id="text_24">
      <!-- 2 -->
      <g transform="translate(34.9703 259.647409)scale(0.1 -0.1)">
       <use xlink:href="#DejaVuSans-32"/>
      </g>
     </g>
    </g>
    <g id="ytick_4">
     <g id="line2d_27">
      <path clip-path="url(#p0c4ca8b8bc)" d="M 48.3328 168.520491 
L 905.6256 168.520491 
" style="fill:none;stroke:#a5a5a5;stroke-linecap:square;stroke-width:0.8;"/>
     </g>
     <g id="line2d_28">
      <g>
       <use style="stroke:#000000;stroke-width:0.8;" x="48.3328" xlink:href="#mb2bd2c66b7" y="168.520491"/>
      </g>
     </g>
     <g id="text_25">
      <!-- 3 -->
      <g transform="translate(34.9703 172.31971)scale(0.1 -0.1)">
       <use xlink:href="#DejaVuSans-33"/>
      </g>
     </g>
    </g>
    <g id="ytick_5">
     <g id="line2d_29">
      <path clip-path="url(#p0c4ca8b8bc)" d="M 48.3328 81.192791 
L 905.6256 81.192791 
" style="fill:none;stroke:#a5a5a5;stroke-linecap:square;stroke-width:0.8;"/>
     </g>
     <g id="line2d_30">
      <g>
       <use style="stroke:#000000;stroke-width:0.8;" x="48.3328" xlink:href="#mb2bd2c66b7" y="81.192791"/>
      </g>
     </g>
     <g id="text_26">
      <!-- 4 -->
      <g transform="translate(34.9703 84.99201)scale(0.1 -0.1)">
       <use xlink:href="#DejaVuSans-34"/>
      </g>
     </g>
    </g>
    <g id="text_27">
     <!-- Percentage of Federal Budget -->
     <defs>
      <path d="M 9.1875 72.90625 
L 40.375 72.90625 
Q 54.296875 72.90625 61.734375 66.71875 
Q 69.1875 60.546875 69.1875 49.125 
Q 69.1875 37.640625 61.734375 31.46875 
Q 54.296875 25.296875 40.375 25.296875 
L 27.984375 25.296875 
L 27.984375 0 
L 9.1875 0 
z
M 27.984375 59.28125 
L 27.984375 38.921875 
L 38.375 38.921875 
Q 43.84375 38.921875 46.828125 41.578125 
Q 49.8125 44.234375 49.8125 49.125 
Q 49.8125 54 46.828125 56.640625 
Q 43.84375 59.28125 38.375 59.28125 
z
" id="DejaVuSans-Bold-50"/>
      <path d="M 52.59375 52.984375 
L 52.59375 38.71875 
Q 49.03125 41.15625 45.4375 42.328125 
Q 41.84375 43.5 37.984375 43.5 
Q 30.671875 43.5 26.59375 39.234375 
Q 22.515625 34.96875 22.515625 27.296875 
Q 22.515625 19.625 26.59375 15.34375 
Q 30.671875 11.078125 37.984375 11.078125 
Q 42.09375 11.078125 45.78125 12.296875 
Q 49.46875 13.53125 52.59375 15.921875 
L 52.59375 1.609375 
Q 48.484375 0.09375 44.265625 -0.65625 
Q 40.046875 -1.421875 35.796875 -1.421875 
Q 21 -1.421875 12.640625 6.171875 
Q 4.296875 13.765625 4.296875 27.296875 
Q 4.296875 40.828125 12.640625 48.40625 
Q 21 56 35.796875 56 
Q 40.09375 56 44.265625 55.25 
Q 48.4375 54.5 52.59375 52.984375 
z
" id="DejaVuSans-Bold-63"/>
      <path d="M 27.484375 70.21875 
L 27.484375 54.6875 
L 45.515625 54.6875 
L 45.515625 42.1875 
L 27.484375 42.1875 
L 27.484375 19 
Q 27.484375 15.1875 29 13.84375 
Q 30.515625 12.5 35.015625 12.5 
L 44 12.5 
L 44 0 
L 29 0 
Q 18.65625 0 14.328125 4.3125 
Q 10.015625 8.640625 10.015625 19 
L 10.015625 42.1875 
L 1.3125 42.1875 
L 1.3125 54.6875 
L 10.015625 54.6875 
L 10.015625 70.21875 
z
" id="DejaVuSans-Bold-74"/>
      <path d="M 45.609375 9.28125 
Q 42 4.5 37.640625 2.25 
Q 33.296875 0 27.59375 0 
Q 17.578125 0 11.03125 7.875 
Q 4.5 15.765625 4.5 27.984375 
Q 4.5 40.234375 11.03125 48.0625 
Q 17.578125 55.90625 27.59375 55.90625 
Q 33.296875 55.90625 37.640625 53.65625 
Q 42 51.421875 45.609375 46.578125 
L 45.609375 54.6875 
L 63.1875 54.6875 
L 63.1875 5.515625 
Q 63.1875 -7.671875 54.859375 -14.625 
Q 46.53125 -21.578125 30.71875 -21.578125 
Q 25.59375 -21.578125 20.796875 -20.796875 
Q 16.015625 -20.015625 11.1875 -18.40625 
L 11.1875 -4.78125 
Q 15.765625 -7.421875 20.15625 -8.71875 
Q 24.5625 -10.015625 29 -10.015625 
Q 37.59375 -10.015625 41.59375 -6.25 
Q 45.609375 -2.484375 45.609375 5.515625 
z
M 34.078125 43.3125 
Q 28.65625 43.3125 25.625 39.296875 
Q 22.609375 35.296875 22.609375 27.984375 
Q 22.609375 20.453125 25.53125 16.578125 
Q 28.46875 12.703125 34.078125 12.703125 
Q 39.546875 12.703125 42.578125 16.703125 
Q 45.609375 20.703125 45.609375 27.984375 
Q 45.609375 35.296875 42.578125 39.296875 
Q 39.546875 43.3125 34.078125 43.3125 
z
" id="DejaVuSans-Bold-67"/>
      <path d="M 34.421875 43.5 
Q 28.609375 43.5 25.5625 39.328125 
Q 22.515625 35.15625 22.515625 27.296875 
Q 22.515625 19.4375 25.5625 15.25 
Q 28.609375 11.078125 34.421875 11.078125 
Q 40.140625 11.078125 43.15625 15.25 
Q 46.1875 19.4375 46.1875 27.296875 
Q 46.1875 35.15625 43.15625 39.328125 
Q 40.140625 43.5 34.421875 43.5 
z
M 34.421875 56 
Q 48.53125 56 56.46875 48.375 
Q 64.40625 40.765625 64.40625 27.296875 
Q 64.40625 13.8125 56.46875 6.1875 
Q 48.53125 -1.421875 34.421875 -1.421875 
Q 20.265625 -1.421875 12.28125 6.1875 
Q 4.296875 13.8125 4.296875 27.296875 
Q 4.296875 40.765625 12.28125 48.375 
Q 20.265625 56 34.421875 56 
z
" id="DejaVuSans-Bold-6f"/>
      <path d="M 44.390625 75.984375 
L 44.390625 64.5 
L 34.71875 64.5 
Q 31 64.5 29.53125 63.15625 
Q 28.078125 61.8125 28.078125 58.5 
L 28.078125 54.6875 
L 43.015625 54.6875 
L 43.015625 42.1875 
L 28.078125 42.1875 
L 28.078125 0 
L 10.59375 0 
L 10.59375 42.1875 
L 1.90625 42.1875 
L 1.90625 54.6875 
L 10.59375 54.6875 
L 10.59375 58.5 
Q 10.59375 67.4375 15.578125 71.703125 
Q 20.5625 75.984375 31 75.984375 
z
" id="DejaVuSans-Bold-66"/>
      <path d="M 9.1875 72.90625 
L 59.90625 72.90625 
L 59.90625 58.6875 
L 27.984375 58.6875 
L 27.984375 45.125 
L 58.015625 45.125 
L 58.015625 30.90625 
L 27.984375 30.90625 
L 27.984375 0 
L 9.1875 0 
z
" id="DejaVuSans-Bold-46"/>
      <path d="M 38.375 44.671875 
Q 42.828125 44.671875 45.109375 46.625 
Q 47.40625 48.578125 47.40625 52.390625 
Q 47.40625 56.15625 45.109375 58.125 
Q 42.828125 60.109375 38.375 60.109375 
L 27.984375 60.109375 
L 27.984375 44.671875 
z
M 39.015625 12.796875 
Q 44.671875 12.796875 47.53125 15.1875 
Q 50.390625 17.578125 50.390625 22.40625 
Q 50.390625 27.15625 47.5625 29.515625 
Q 44.734375 31.890625 39.015625 31.890625 
L 27.984375 31.890625 
L 27.984375 12.796875 
z
M 56.5 39.015625 
Q 62.546875 37.25 65.859375 32.515625 
Q 69.1875 27.78125 69.1875 20.90625 
Q 69.1875 10.359375 62.0625 5.171875 
Q 54.9375 0 40.375 0 
L 9.1875 0 
L 9.1875 72.90625 
L 37.40625 72.90625 
Q 52.59375 72.90625 59.40625 68.3125 
Q 66.21875 63.71875 66.21875 53.609375 
Q 66.21875 48.296875 63.71875 44.5625 
Q 61.234375 40.828125 56.5 39.015625 
z
" id="DejaVuSans-Bold-42"/>
      <path d="M 7.8125 21.296875 
L 7.8125 54.6875 
L 25.390625 54.6875 
L 25.390625 49.21875 
Q 25.390625 44.78125 25.34375 38.0625 
Q 25.296875 31.34375 25.296875 29.109375 
Q 25.296875 22.515625 25.640625 19.609375 
Q 25.984375 16.703125 26.8125 15.375 
Q 27.875 13.671875 29.609375 12.734375 
Q 31.34375 11.8125 33.59375 11.8125 
Q 39.0625 11.8125 42.1875 16.015625 
Q 45.3125 20.21875 45.3125 27.6875 
L 45.3125 54.6875 
L 62.796875 54.6875 
L 62.796875 0 
L 45.3125 0 
L 45.3125 7.90625 
Q 41.359375 3.125 36.9375 0.84375 
Q 32.515625 -1.421875 27.203125 -1.421875 
Q 17.71875 -1.421875 12.765625 4.390625 
Q 7.8125 10.203125 7.8125 21.296875 
z
" id="DejaVuSans-Bold-75"/>
     </defs>
     <g transform="translate(28.812488 312.958758)rotate(-90)scale(0.1 -0.1)">
      <use xlink:href="#DejaVuSans-Bold-50"/>
      <use x="73.291016" xlink:href="#DejaVuSans-Bold-65"/>
      <use x="141.113281" xlink:href="#DejaVuSans-Bold-72"/>
      <use x="190.429688" xlink:href="#DejaVuSans-Bold-63"/>
      <use x="249.707031" xlink:href="#DejaVuSans-Bold-65"/>
      <use x="317.529297" xlink:href="#DejaVuSans-Bold-6e"/>
      <use x="388.720703" xlink:href="#DejaVuSans-Bold-74"/>
      <use x="436.523438" xlink:href="#DejaVuSans-Bold-61"/>
      <use x="504.003906" xlink:href="#DejaVuSans-Bold-67"/>
      <use x="575.585938" xlink:href="#DejaVuSans-Bold-65"/>
      <use x="643.408203" xlink:href="#DejaVuSans-Bold-20"/>
      <use x="678.222656" xlink:href="#DejaVuSans-Bold-6f"/>
      <use x="746.923828" xlink:href="#DejaVuSans-Bold-66"/>
      <use x="790.429688" xlink:href="#DejaVuSans-Bold-20"/>
      <use x="825.244141" xlink:href="#DejaVuSans-Bold-46"/>
      <use x="893.492188" xlink:href="#DejaVuSans-Bold-65"/>
      <use x="961.314453" xlink:href="#DejaVuSans-Bold-64"/>
      <use x="1032.896484" xlink:href="#DejaVuSans-Bold-65"/>
      <use x="1100.71875" xlink:href="#DejaVuSans-Bold-72"/>
      <use x="1150.035156" xlink:href="#DejaVuSans-Bold-61"/>
      <use x="1217.515625" xlink:href="#DejaVuSans-Bold-6c"/>
      <use x="1251.792969" xlink:href="#DejaVuSans-Bold-20"/>
      <use x="1286.607422" xlink:href="#DejaVuSans-Bold-42"/>
      <use x="1362.828125" xlink:href="#DejaVuSans-Bold-75"/>
      <use x="1434.019531" xlink:href="#DejaVuSans-Bold-64"/>
      <use x="1505.601562" xlink:href="#DejaVuSans-Bold-67"/>
      <use x="1577.183594" xlink:href="#DejaVuSans-Bold-65"/>
      <use x="1645.005859" xlink:href="#DejaVuSans-Bold-74"/>
     </g>
    </g>
   </g>
   <g id="patch_3">
    <path d="M 48.3328 430.50359 
L 48.3328 26.132677 
" style="fill:none;stroke:#000000;stroke-linecap:square;stroke-linejoin:miter;stroke-width:0.8;"/>
   </g>
   <g id="patch_4">
    <path d="M 905.6256 430.50359 
L 905.6256 26.132677 
" style="fill:none;stroke:#000000;stroke-linecap:square;stroke-linejoin:miter;stroke-width:0.8;"/>
   </g>
   <g id="patch_5">
    <path d="M 48.3328 430.50359 
L 905.6256 430.50359 
" style="fill:none;stroke:#000000;stroke-linecap:square;stroke-linejoin:miter;stroke-width:0.8;"/>
   </g>
   <g id="patch_6">
    <path d="M 48.3328 26.132677 
L 905.6256 26.132677 
" style="fill:none;stroke:#000000;stroke-linecap:square;stroke-linejoin:miter;stroke-width:0.8;"/>
   </g>
   <g id="text_28">
    <!-- NASA Budget as a Percentage of Federal Budget -->
    <defs>
     <path d="M 9.1875 72.90625 
L 30.171875 72.90625 
L 56.6875 22.90625 
L 56.6875 72.90625 
L 74.515625 72.90625 
L 74.515625 0 
L 53.515625 0 
L 27 50 
L 27 0 
L 9.1875 0 
z
" id="DejaVuSans-Bold-4e"/>
     <path d="M 53.421875 13.28125 
L 24.03125 13.28125 
L 19.390625 0 
L 0.484375 0 
L 27.484375 72.90625 
L 49.90625 72.90625 
L 76.90625 0 
L 58.015625 0 
z
M 28.71875 26.8125 
L 48.6875 26.8125 
L 38.71875 55.8125 
z
" id="DejaVuSans-Bold-41"/>
     <path d="M 59.90625 70.609375 
L 59.90625 55.171875 
Q 53.90625 57.859375 48.1875 59.21875 
Q 42.484375 60.59375 37.40625 60.59375 
Q 30.671875 60.59375 27.4375 58.734375 
Q 24.21875 56.890625 24.21875 52.984375 
Q 24.21875 50.046875 26.390625 48.40625 
Q 28.5625 46.78125 34.28125 45.609375 
L 42.28125 44 
Q 54.4375 41.546875 59.5625 36.5625 
Q 64.703125 31.59375 64.703125 22.40625 
Q 64.703125 10.359375 57.546875 4.46875 
Q 50.390625 -1.421875 35.6875 -1.421875 
Q 28.765625 -1.421875 21.78125 -0.09375 
Q 14.796875 1.21875 7.8125 3.8125 
L 7.8125 19.671875 
Q 14.796875 15.96875 21.3125 14.078125 
Q 27.828125 12.203125 33.890625 12.203125 
Q 40.046875 12.203125 43.3125 14.25 
Q 46.578125 16.3125 46.578125 20.125 
Q 46.578125 23.53125 44.359375 25.390625 
Q 42.140625 27.25 35.5 28.71875 
L 28.21875 30.328125 
Q 17.28125 32.671875 12.21875 37.796875 
Q 7.171875 42.921875 7.171875 51.609375 
Q 7.171875 62.5 14.203125 68.359375 
Q 21.234375 74.21875 34.421875 74.21875 
Q 40.4375 74.21875 46.78125 73.3125 
Q 53.125 72.40625 59.90625 70.609375 
z
" id="DejaVuSans-Bold-53"/>
     <path d="M 51.125 52.984375 
L 51.125 39.703125 
Q 45.515625 42.046875 40.28125 43.21875 
Q 35.0625 44.390625 30.421875 44.390625 
Q 25.4375 44.390625 23.015625 43.140625 
Q 20.609375 41.890625 20.609375 39.3125 
Q 20.609375 37.203125 22.4375 36.078125 
Q 24.265625 34.96875 29 34.421875 
L 32.078125 33.984375 
Q 45.515625 32.28125 50.140625 28.375 
Q 54.78125 24.46875 54.78125 16.109375 
Q 54.78125 7.375 48.328125 2.96875 
Q 41.890625 -1.421875 29.109375 -1.421875 
Q 23.6875 -1.421875 17.890625 -0.5625 
Q 12.109375 0.296875 6 2 
L 6 15.28125 
Q 11.234375 12.75 16.71875 11.46875 
Q 22.21875 10.203125 27.875 10.203125 
Q 33.015625 10.203125 35.59375 11.609375 
Q 38.1875 13.03125 38.1875 15.828125 
Q 38.1875 18.171875 36.40625 19.3125 
Q 34.625 20.453125 29.296875 21.09375 
L 26.21875 21.484375 
Q 14.546875 22.953125 9.859375 26.90625 
Q 5.171875 30.859375 5.171875 38.921875 
Q 5.171875 47.609375 11.125 51.796875 
Q 17.09375 56 29.390625 56 
Q 34.234375 56 39.546875 55.265625 
Q 44.875 54.546875 51.125 52.984375 
z
" id="DejaVuSans-Bold-73"/>
    </defs>
    <g transform="translate(312.386075 20.132677)scale(0.12 -0.12)">
     <use xlink:href="#DejaVuSans-Bold-4e"/>
     <use x="83.691406" xlink:href="#DejaVuSans-Bold-41"/>
     <use x="161.083984" xlink:href="#DejaVuSans-Bold-53"/>
     <use x="233.105469" xlink:href="#DejaVuSans-Bold-41"/>
     <use x="310.498047" xlink:href="#DejaVuSans-Bold-20"/>
     <use x="345.3125" xlink:href="#DejaVuSans-Bold-42"/>
     <use x="421.533203" xlink:href="#DejaVuSans-Bold-75"/>
     <use x="492.724609" xlink:href="#DejaVuSans-Bold-64"/>
     <use x="564.306641" xlink:href="#DejaVuSans-Bold-67"/>
     <use x="635.888672" xlink:href="#DejaVuSans-Bold-65"/>
     <use x="703.710938" xlink:href="#DejaVuSans-Bold-74"/>
     <use x="751.513672" xlink:href="#DejaVuSans-Bold-20"/>
     <use x="786.328125" xlink:href="#DejaVuSans-Bold-61"/>
     <use x="853.808594" xlink:href="#DejaVuSans-Bold-73"/>
     <use x="913.330078" xlink:href="#DejaVuSans-Bold-20"/>
     <use x="948.144531" xlink:href="#DejaVuSans-Bold-61"/>
     <use x="1015.625" xlink:href="#DejaVuSans-Bold-20"/>
     <use x="1050.439453" xlink:href="#DejaVuSans-Bold-50"/>
     <use x="1123.730469" xlink:href="#DejaVuSans-Bold-65"/>
     <use x="1191.552734" xlink:href="#DejaVuSans-Bold-72"/>
     <use x="1240.869141" xlink:href="#DejaVuSans-Bold-63"/>
     <use x="1300.146484" xlink:href="#DejaVuSans-Bold-65"/>
     <use x="1367.96875" xlink:href="#DejaVuSans-Bold-6e"/>
     <use x="1439.160156" xlink:href="#DejaVuSans-Bold-74"/>
     <use x="1486.962891" xlink:href="#DejaVuSans-Bold-61"/>
     <use x="1554.443359" xlink:href="#DejaVuSans-Bold-67"/>
     <use x="1626.025391" xlink:href="#DejaVuSans-Bold-65"/>
     <use x="1693.847656" xlink:href="#DejaVuSans-Bold-20"/>
     <use x="1728.662109" xlink:href="#DejaVuSans-Bold-6f"/>
     <use x="1797.363281" xlink:href="#DejaVuSans-Bold-66"/>
     <use x="1840.869141" xlink:href="#DejaVuSans-Bold-20"/>
     <use x="1875.683594" xlink:href="#DejaVuSans-Bold-46"/>
     <use x="1943.931641" xlink:href="#DejaVuSans-Bold-65"/>
     <use x="2011.753906" xlink:href="#DejaVuSans-Bold-64"/>
     <use x="2083.335938" xlink:href="#DejaVuSans-Bold-65"/>
     <use x="2151.158203" xlink:href="#DejaVuSans-Bold-72"/>
     <use x="2200.474609" xlink:href="#DejaVuSans-Bold-61"/>
     <use x="2267.955078" xlink:href="#DejaVuSans-Bold-6c"/>
     <use x="2302.232422" xlink:href="#DejaVuSans-Bold-20"/>
     <use x="2337.046875" xlink:href="#DejaVuSans-Bold-42"/>
     <use x="2413.267578" xlink:href="#DejaVuSans-Bold-75"/>
     <use x="2484.458984" xlink:href="#DejaVuSans-Bold-64"/>
     <use x="2556.041016" xlink:href="#DejaVuSans-Bold-67"/>
     <use x="2627.623047" xlink:href="#DejaVuSans-Bold-65"/>
     <use x="2695.445312" xlink:href="#DejaVuSans-Bold-74"/>
    </g>
   </g>
   <g id="patch_7">
    <path clip-path="url(#p0c4ca8b8bc)" d="M 56.765188 430.50359 
L 68.008372 430.50359 
L 68.008372 421.77082 
L 56.765188 421.77082 
z
" style="fill:#cc0e0e;"/>
   </g>
   <g id="patch_8">
    <path clip-path="url(#p0c4ca8b8bc)" d="M 70.819169 430.50359 
L 82.062353 430.50359 
L 82.062353 413.03805 
L 70.819169 413.03805 
z
" style="fill:#cc0e0e;"/>
   </g>
   <g id="patch_9">
    <path clip-path="url(#p0c4ca8b8bc)" d="M 84.873149 430.50359 
L 96.116333 430.50359 
L 96.116333 386.83974 
L 84.873149 386.83974 
z
" style="fill:#cc0e0e;"/>
   </g>
   <g id="patch_10">
    <path clip-path="url(#p0c4ca8b8bc)" d="M 98.927129 430.50359 
L 110.170313 430.50359 
L 110.170313 351.90866 
L 98.927129 351.90866 
z
" style="fill:#cc0e0e;"/>
   </g>
   <g id="patch_11">
    <path clip-path="url(#p0c4ca8b8bc)" d="M 112.98111 430.50359 
L 124.224294 430.50359 
L 124.224294 327.456904 
L 112.98111 327.456904 
z
" style="fill:#cc0e0e;"/>
   </g>
   <g id="patch_12">
    <path clip-path="url(#p0c4ca8b8bc)" d="M 127.03509 430.50359 
L 138.278274 430.50359 
L 138.278274 230.523158 
L 127.03509 230.523158 
z
" style="fill:#cc0e0e;"/>
   </g>
   <g id="patch_13">
    <path clip-path="url(#p0c4ca8b8bc)" d="M 141.08907 430.50359 
L 152.332254 430.50359 
L 152.332254 123.110087 
L 141.08907 123.110087 
z
" style="fill:#cc0e0e;"/>
   </g>
   <g id="patch_14">
    <path clip-path="url(#p0c4ca8b8bc)" d="M 155.14305 430.50359 
L 166.386235 430.50359 
L 166.386235 54.121205 
L 155.14305 54.121205 
z
" style="fill:#cc0e0e;"/>
   </g>
   <g id="patch_15">
    <path clip-path="url(#p0c4ca8b8bc)" d="M 169.197031 430.50359 
L 180.440215 430.50359 
L 180.440215 45.388435 
L 169.197031 45.388435 
z
" style="fill:#cc0e0e;"/>
   </g>
   <g id="patch_16">
    <path clip-path="url(#p0c4ca8b8bc)" d="M 183.251011 430.50359 
L 194.494195 430.50359 
L 194.494195 129.223026 
L 183.251011 129.223026 
z
" style="fill:#cc0e0e;"/>
   </g>
   <g id="patch_17">
    <path clip-path="url(#p0c4ca8b8bc)" d="M 197.304991 430.50359 
L 208.548176 430.50359 
L 208.548176 199.085186 
L 197.304991 199.085186 
z
" style="fill:#cc0e0e;"/>
   </g>
   <g id="patch_18">
    <path clip-path="url(#p0c4ca8b8bc)" d="M 211.358972 430.50359 
L 222.602156 430.50359 
L 222.602156 228.776604 
L 211.358972 228.776604 
z
" style="fill:#cc0e0e;"/>
   </g>
   <g id="patch_19">
    <path clip-path="url(#p0c4ca8b8bc)" d="M 225.412952 430.50359 
L 236.656136 430.50359 
L 236.656136 262.834407 
L 225.412952 262.834407 
z
" style="fill:#cc0e0e;"/>
   </g>
   <g id="patch_20">
    <path clip-path="url(#p0c4ca8b8bc)" d="M 239.466932 430.50359 
L 250.710117 430.50359 
L 250.710117 289.905993 
L 239.466932 289.905993 
z
" style="fill:#cc0e0e;"/>
   </g>
   <g id="patch_21">
    <path clip-path="url(#p0c4ca8b8bc)" d="M 253.520913 430.50359 
L 264.764097 430.50359 
L 264.764097 301.258594 
L 253.520913 301.258594 
z
" style="fill:#cc0e0e;"/>
   </g>
   <g id="patch_22">
    <path clip-path="url(#p0c4ca8b8bc)" d="M 267.574893 430.50359 
L 278.818077 430.50359 
L 278.818077 312.611195 
L 267.574893 312.611195 
z
" style="fill:#cc0e0e;"/>
   </g>
   <g id="patch_23">
    <path clip-path="url(#p0c4ca8b8bc)" d="M 281.628873 430.50359 
L 292.872058 430.50359 
L 292.872058 324.837073 
L 281.628873 324.837073 
z
" style="fill:#cc0e0e;"/>
   </g>
   <g id="patch_24">
    <path clip-path="url(#p0c4ca8b8bc)" d="M 295.682854 430.50359 
L 306.926038 430.50359 
L 306.926038 344.922444 
L 295.682854 344.922444 
z
" style="fill:#cc0e0e;"/>
   </g>
   <g id="patch_25">
    <path clip-path="url(#p0c4ca8b8bc)" d="M 309.736834 430.50359 
L 320.980018 430.50359 
L 320.980018 344.049167 
L 309.736834 344.049167 
z
" style="fill:#cc0e0e;"/>
   </g>
   <g id="patch_26">
    <path clip-path="url(#p0c4ca8b8bc)" d="M 323.790814 430.50359 
L 335.033999 430.50359 
L 335.033999 344.922444 
L 323.790814 344.922444 
z
" style="fill:#cc0e0e;"/>
   </g>
   <g id="patch_27">
    <path clip-path="url(#p0c4ca8b8bc)" d="M 337.844795 430.50359 
L 349.087979 430.50359 
L 349.087979 351.035383 
L 337.844795 351.035383 
z
" style="fill:#cc0e0e;"/>
   </g>
   <g id="patch_28">
    <path clip-path="url(#p0c4ca8b8bc)" d="M 351.898775 430.50359 
L 363.141959 430.50359 
L 363.141959 354.528491 
L 351.898775 354.528491 
z
" style="fill:#cc0e0e;"/>
   </g>
   <g id="patch_29">
    <path clip-path="url(#p0c4ca8b8bc)" d="M 365.952755 430.50359 
L 377.19594 430.50359 
L 377.19594 357.148322 
L 365.952755 357.148322 
z
" style="fill:#cc0e0e;"/>
   </g>
   <g id="patch_30">
    <path clip-path="url(#p0c4ca8b8bc)" d="M 380.006736 430.50359 
L 391.24992 430.50359 
L 391.24992 358.894876 
L 380.006736 358.894876 
z
" style="fill:#cc0e0e;"/>
   </g>
   <g id="patch_31">
    <path clip-path="url(#p0c4ca8b8bc)" d="M 394.060716 430.50359 
L 405.3039 430.50359 
L 405.3039 358.021599 
L 394.060716 358.021599 
z
" style="fill:#cc0e0e;"/>
   </g>
   <g id="patch_32">
    <path clip-path="url(#p0c4ca8b8bc)" d="M 408.114696 430.50359 
L 419.357881 430.50359 
L 419.357881 356.275045 
L 408.114696 356.275045 
z
" style="fill:#cc0e0e;"/>
   </g>
   <g id="patch_33">
    <path clip-path="url(#p0c4ca8b8bc)" d="M 422.168677 430.50359 
L 433.411861 430.50359 
L 433.411861 358.021599 
L 422.168677 358.021599 
z
" style="fill:#cc0e0e;"/>
   </g>
   <g id="patch_34">
    <path clip-path="url(#p0c4ca8b8bc)" d="M 436.222657 430.50359 
L 447.465841 430.50359 
L 447.465841 363.261261 
L 436.222657 363.261261 
z
" style="fill:#cc0e0e;"/>
   </g>
   <g id="patch_35">
    <path clip-path="url(#p0c4ca8b8bc)" d="M 450.276637 430.50359 
L 461.519822 430.50359 
L 461.519822 365.007815 
L 450.276637 365.007815 
z
" style="fill:#cc0e0e;"/>
   </g>
   <g id="patch_36">
    <path clip-path="url(#p0c4ca8b8bc)" d="M 464.330618 430.50359 
L 475.573802 430.50359 
L 475.573802 364.134538 
L 464.330618 364.134538 
z
" style="fill:#cc0e0e;"/>
   </g>
   <g id="patch_37">
    <path clip-path="url(#p0c4ca8b8bc)" d="M 478.384598 430.50359 
L 489.627782 430.50359 
L 489.627782 356.275045 
L 478.384598 356.275045 
z
" style="fill:#cc0e0e;"/>
   </g>
   <g id="patch_38">
    <path clip-path="url(#p0c4ca8b8bc)" d="M 492.438578 430.50359 
L 503.681763 430.50359 
L 503.681763 346.668998 
L 492.438578 346.668998 
z
" style="fill:#cc0e0e;"/>
   </g>
   <g id="patch_39">
    <path clip-path="url(#p0c4ca8b8bc)" d="M 506.492559 430.50359 
L 517.735743 430.50359 
L 517.735743 344.049167 
L 506.492559 344.049167 
z
" style="fill:#cc0e0e;"/>
   </g>
   <g id="patch_40">
    <path clip-path="url(#p0c4ca8b8bc)" d="M 520.546539 430.50359 
L 531.789723 430.50359 
L 531.789723 338.809505 
L 520.546539 338.809505 
z
" style="fill:#cc0e0e;"/>
   </g>
   <g id="patch_41">
    <path clip-path="url(#p0c4ca8b8bc)" d="M 534.600519 430.50359 
L 545.843704 430.50359 
L 545.843704 342.302613 
L 534.600519 342.302613 
z
" style="fill:#cc0e0e;"/>
   </g>
   <g id="patch_42">
    <path clip-path="url(#p0c4ca8b8bc)" d="M 548.6545 430.50359 
L 559.897684 430.50359 
L 559.897684 342.302613 
L 548.6545 342.302613 
z
" style="fill:#cc0e0e;"/>
   </g>
   <g id="patch_43">
    <path clip-path="url(#p0c4ca8b8bc)" d="M 562.70848 430.50359 
L 573.951664 430.50359 
L 573.951664 348.415552 
L 562.70848 348.415552 
z
" style="fill:#cc0e0e;"/>
   </g>
   <g id="patch_44">
    <path clip-path="url(#p0c4ca8b8bc)" d="M 576.76246 430.50359 
L 588.005645 430.50359 
L 588.005645 353.655214 
L 576.76246 353.655214 
z
" style="fill:#cc0e0e;"/>
   </g>
   <g id="patch_45">
    <path clip-path="url(#p0c4ca8b8bc)" d="M 590.816441 430.50359 
L 602.059625 430.50359 
L 602.059625 352.781937 
L 590.816441 352.781937 
z
" style="fill:#cc0e0e;"/>
   </g>
   <g id="patch_46">
    <path clip-path="url(#p0c4ca8b8bc)" d="M 604.870421 430.50359 
L 616.113605 430.50359 
L 616.113605 351.90866 
L 604.870421 351.90866 
z
" style="fill:#cc0e0e;"/>
   </g>
   <g id="patch_47">
    <path clip-path="url(#p0c4ca8b8bc)" d="M 618.924401 430.50359 
L 630.167586 430.50359 
L 630.167586 355.401768 
L 618.924401 355.401768 
z
" style="fill:#cc0e0e;"/>
   </g>
   <g id="patch_48">
    <path clip-path="url(#p0c4ca8b8bc)" d="M 632.978382 430.50359 
L 644.221566 430.50359 
L 644.221566 360.64143 
L 632.978382 360.64143 
z
" style="fill:#cc0e0e;"/>
   </g>
   <g id="patch_49">
    <path clip-path="url(#p0c4ca8b8bc)" d="M 647.032362 430.50359 
L 658.275546 430.50359 
L 658.275546 365.007815 
L 647.032362 365.007815 
z
" style="fill:#cc0e0e;"/>
   </g>
   <g id="patch_50">
    <path clip-path="url(#p0c4ca8b8bc)" d="M 661.086342 430.50359 
L 672.329527 430.50359 
L 672.329527 364.134538 
L 661.086342 364.134538 
z
" style="fill:#cc0e0e;"/>
   </g>
   <g id="patch_51">
    <path clip-path="url(#p0c4ca8b8bc)" d="M 675.140323 430.50359 
L 686.383507 430.50359 
L 686.383507 367.627646 
L 675.140323 367.627646 
z
" style="fill:#cc0e0e;"/>
   </g>
   <g id="patch_52">
    <path clip-path="url(#p0c4ca8b8bc)" d="M 689.194303 430.50359 
L 700.437487 430.50359 
L 700.437487 371.120754 
L 689.194303 371.120754 
z
" style="fill:#cc0e0e;"/>
   </g>
   <g id="patch_53">
    <path clip-path="url(#p0c4ca8b8bc)" d="M 703.248283 430.50359 
L 714.491468 430.50359 
L 714.491468 372.867308 
L 703.248283 372.867308 
z
" style="fill:#cc0e0e;"/>
   </g>
   <g id="patch_54">
    <path clip-path="url(#p0c4ca8b8bc)" d="M 717.302264 430.50359 
L 728.545448 430.50359 
L 728.545448 375.487139 
L 717.302264 375.487139 
z
" style="fill:#cc0e0e;"/>
   </g>
   <g id="patch_55">
    <path clip-path="url(#p0c4ca8b8bc)" d="M 731.356244 430.50359 
L 742.599428 430.50359 
L 742.599428 380.726801 
L 731.356244 380.726801 
z
" style="fill:#cc0e0e;"/>
   </g>
   <g id="patch_56">
    <path clip-path="url(#p0c4ca8b8bc)" d="M 745.410224 430.50359 
L 756.653409 430.50359 
L 756.653409 379.853524 
L 745.410224 379.853524 
z
" style="fill:#cc0e0e;"/>
   </g>
   <g id="patch_57">
    <path clip-path="url(#p0c4ca8b8bc)" d="M 759.464205 430.50359 
L 770.707389 430.50359 
L 770.707389 378.10697 
L 759.464205 378.10697 
z
" style="fill:#cc0e0e;"/>
   </g>
   <g id="patch_58">
    <path clip-path="url(#p0c4ca8b8bc)" d="M 773.518185 430.50359 
L 784.761369 430.50359 
L 784.761369 380.726801 
L 773.518185 380.726801 
z
" style="fill:#cc0e0e;"/>
   </g>
   <g id="patch_59">
    <path clip-path="url(#p0c4ca8b8bc)" d="M 787.572165 430.50359 
L 798.81535 430.50359 
L 798.81535 385.093186 
L 787.572165 385.093186 
z
" style="fill:#cc0e0e;"/>
   </g>
   <g id="patch_60">
    <path clip-path="url(#p0c4ca8b8bc)" d="M 801.626146 430.50359 
L 812.86933 430.50359 
L 812.86933 385.966463 
L 801.626146 385.966463 
z
" style="fill:#cc0e0e;"/>
   </g>
   <g id="patch_61">
    <path clip-path="url(#p0c4ca8b8bc)" d="M 815.680126 430.50359 
L 826.92331 430.50359 
L 826.92331 386.83974 
L 815.680126 386.83974 
z
" style="fill:#cc0e0e;"/>
   </g>
   <g id="patch_62">
    <path clip-path="url(#p0c4ca8b8bc)" d="M 829.734106 430.50359 
L 840.97729 430.50359 
L 840.97729 387.713017 
L 829.734106 387.713017 
z
" style="fill:#cc0e0e;"/>
   </g>
   <g id="patch_63">
    <path clip-path="url(#p0c4ca8b8bc)" d="M 843.788087 430.50359 
L 855.031271 430.50359 
L 855.031271 386.83974 
L 843.788087 386.83974 
z
" style="fill:#cc0e0e;"/>
   </g>
   <g id="patch_64">
    <path clip-path="url(#p0c4ca8b8bc)" d="M 857.842067 430.50359 
L 869.085251 430.50359 
L 869.085251 387.713017 
L 857.842067 387.713017 
z
" style="fill:#cc0e0e;"/>
   </g>
   <g id="patch_65">
    <path clip-path="url(#p0c4ca8b8bc)" d="M 871.896047 430.50359 
L 883.139231 430.50359 
L 883.139231 386.83974 
L 871.896047 386.83974 
z
" style="fill:#cc0e0e;"/>
   </g>
   <g id="patch_66">
    <path clip-path="url(#p0c4ca8b8bc)" d="M 885.950028 430.50359 
L 897.193212 430.50359 
L 897.193212 389.459571 
L 885.950028 389.459571 
z
" style="fill:#cc0e0e;"/>
   </g>
  </g>
 </g>
 <defs>
  <clipPath id="p0c4ca8b8bc">
   <rect height="404.370913" width="857.2928" x="48.3328" y="26.132677"/>
  </clipPath>
 </defs>
</svg>
